<svg id="Layer_1" enable-background="new 0 0 511.898 511.898" height="512" viewBox="0 0 511.898 511.898" width="512" xmlns="http://www.w3.org/2000/svg"><g><path d="m301.25 224.309c-5.872-8.433-9.329-18.668-9.329-29.7 0-28.733 23.376-52.109 52.109-52.109s52.109 23.376 52.109 52.109c0 11.032-3.456 21.267-9.329 29.7 16.308 9.628 28.224 25.923 31.969 45.115h14.178v-147.266h-178.177v147.266h14.501c3.745-19.192 15.661-35.487 31.969-45.115z"/><path d="m345.09 214.985c10.701-.637 19.218-9.519 19.218-20.377 0-11.27-9.169-20.439-20.439-20.439s-20.439 9.169-20.439 20.439c0 10.858 8.517 19.74 19.218 20.377z"/><path d="m352.517 246.656c-4.875.012-11.233.029-17.296 0-15.124 0-28.081 9.457-33.268 22.768h83.833c-5.188-13.312-18.145-22.768-33.269-22.768z"/><path d="m511.898 460.667v-409.437c0-7.148-5.795-12.943-12.943-12.943h-323.115v435.323h323.115c7.148 0 12.943-5.795 12.943-12.943zm-75.196-36.91h-197.804c-8.745 0-15.835-7.09-15.835-15.835s7.09-15.835 15.835-15.835h197.804c8.745 0 15.835 7.09 15.835 15.835 0 8.746-7.09 15.835-15.835 15.835zm-149.711-77.652c0-8.745 7.09-15.835 15.835-15.835s15.835 7.09 15.835 15.835c0 8.746-7.09 15.835-15.835 15.835-8.746 0-15.835-7.089-15.835-15.835zm-63.928-239.782c0-8.745 7.09-15.835 15.835-15.835h209.848c8.745 0 15.835 7.09 15.835 15.835v178.936c0 8.745-7.09 15.835-15.835 15.835h-209.848c-8.745 0-15.835-7.09-15.835-15.835zm15.834 223.947c8.745 0 15.835 7.09 15.835 15.835 0 8.746-7.09 15.835-15.835 15.835s-15.835-7.089-15.835-15.835c0-8.745 7.09-15.835 15.835-15.835z"/><path d="m0 456.753c0 30.403 24.734 55.137 55.137 55.137h33.895c30.403 0 55.137-24.734 55.137-55.137v-401.609c0-30.403-24.734-55.137-55.137-55.137h-33.895c-30.403 0-55.137 24.734-55.137 55.137z"/></g></svg>