<?xml version="1.0" encoding="iso-8859-1"?>
<!-- Generator: Adobe Illustrator 19.0.0, SVG Export Plug-In . SVG Version: 6.00 Build 0)  -->
<svg version="1.1" id="Layer_1" xmlns="http://www.w3.org/2000/svg" xmlns:xlink="http://www.w3.org/1999/xlink" x="0px" y="0px"
	 viewBox="0 0 512 512" style="enable-background:new 0 0 512 512;" xml:space="preserve">
<g>
	<g>
		<path d="M366.833,34.157C344.807,12.131,315.484,0,284.259,0c-20.065,0-39.316,5.074-56.383,14.506l158.609,158.614
			c9.43-17.068,14.504-36.321,14.504-56.389C400.99,85.506,388.859,56.183,366.833,34.157z"/>
	</g>
</g>
<g>
	<g>
		<path d="M201.07,34.877c-14.48,14.72-24.559,32.837-29.649,52.43l142.263,142.268c19.594-5.092,37.715-15.169,52.43-29.648
			L201.07,34.877z"/>
	</g>
</g>
<g>
	<g>
		<path d="M162.38,125.447L47.16,276.627c-12.887,17.187-14.25,40.068-4.822,58.437L5.097,372.309
			c-6.516,6.516-6.516,17.078,0,23.589c3.259,3.259,7.527,4.888,11.794,4.888s8.537-1.629,11.794-4.888l37.239-37.243
			c7.894,4.053,16.621,6.117,25.383,6.117c11.632-0.006,23.307-3.628,33.157-11.012l151.089-115.137L162.38,125.447z
			 M166.975,257.61c-3.259,3.253-7.527,4.882-11.794,4.882c-4.267,0-8.537-1.629-11.794-4.888c-6.516-6.516-6.516-17.078,0-23.595
			l23.601-23.589c6.516-6.506,17.073-6.51,23.589,0.006s6.516,17.078,0,23.595L166.975,257.61z"/>
	</g>
</g>
<g>
	<g>
		<path d="M504.46,203.469c-4.583-3.101-10.404-3.741-15.542-1.673l-166.82,66.728c-6.342,2.53-10.492,8.667-10.492,15.488v163.309
			c-5.243-1.247-10.803-2.05-16.682-2.05c-27.596,0-50.046,14.966-50.046,33.364S267.327,512,294.924,512
			c27.597,0,50.046-14.966,50.046-33.364c0-0.761,0-149.967,0-149.967l133.456-53.38v116.426c-5.243-1.247-10.803-2.05-16.682-2.05
			c-27.596,0-50.046,14.966-50.046,33.364s22.45,33.364,50.046,33.364s50.046-14.966,50.046-33.364c0-0.761,0-205.745,0-205.745
			C511.791,211.75,509.043,206.576,504.46,203.469z"/>
	</g>
</g>
<g>
</g>
<g>
</g>
<g>
</g>
<g>
</g>
<g>
</g>
<g>
</g>
<g>
</g>
<g>
</g>
<g>
</g>
<g>
</g>
<g>
</g>
<g>
</g>
<g>
</g>
<g>
</g>
<g>
</g>
</svg>
